<svg width="24" height="24" viewBox="0 0 24 24" fill="none" xmlns="http://www.w3.org/2000/svg">
<path d="M9 5.99121V8.99121" stroke="#212121" stroke-width="2" stroke-linecap="round" stroke-linejoin="round"/>
<path d="M18.503 9.02821C18.5 9.01921 9.82402 9.00021 9.82102 8.99121H7.99902C6.34202 8.99121 4.99902 10.3342 4.99902 11.9912V15.9912C4.99902 17.6482 6.34202 18.9912 7.99902 18.9912H15.999C17.656 18.9912 18.999 17.6482 18.999 15.9912V12.7512" stroke="#212121" stroke-width="2" stroke-linecap="round" stroke-linejoin="round"/>
<path d="M9 14.4912C9.55228 14.4912 10 14.0435 10 13.4912C10 12.9389 9.55228 12.4912 9 12.4912C8.44772 12.4912 8 12.9389 8 13.4912C8 14.0435 8.44772 14.4912 9 14.4912Z" fill="#212121"/>
<path d="M15 14.4912C15.5523 14.4912 16 14.0435 16 13.4912C16 12.9389 15.5523 12.4912 15 12.4912C14.4477 12.4912 14 12.9389 14 13.4912C14 14.0435 14.4477 14.4912 15 14.4912Z" fill="#212121"/>
<path d="M11 14.9912H13C13.276 14.9912 13.5 15.2152 13.5 15.4912C13.5 16.3192 12.828 16.9912 12 16.9912C11.172 16.9912 10.5 16.3192 10.5 15.4912C10.5 15.2152 10.724 14.9912 11 14.9912Z" fill="#212121"/>
</svg>
