<svg width="32" height="32" viewBox="0 0 32 32" fill="none" xmlns="http://www.w3.org/2000/svg">
<path d="M17.665 14.3336C17.665 13.4132 16.9193 12.6668 15.999 12.6666C15.0785 12.6666 14.332 13.4131 14.332 14.3336C14.3322 15.2539 15.0787 15.9996 15.999 15.9996C16.9192 15.9994 17.6649 15.2538 17.665 14.3336ZM19.665 14.3336C19.6649 16.3584 18.0238 17.9994 15.999 17.9996C13.9741 17.9996 12.3322 16.3585 12.332 14.3336C12.332 12.3085 13.974 10.6666 15.999 10.6666C18.0239 10.6668 19.665 12.3086 19.665 14.3336Z" fill="#001E4C"/>
<path d="M15.9986 19.3333C18.8928 19.3333 21.3303 21.273 22.0885 23.9211C22.2401 24.4519 21.9327 25.0055 21.4019 25.1575C20.871 25.3095 20.3176 25.0019 20.1656 24.4709C19.6465 22.6579 17.9764 21.3333 15.9986 21.3333C14.1445 21.3333 12.5614 22.4976 11.943 24.137L11.7994 24.5676C11.6116 25.0386 11.0933 25.3 10.5953 25.1575C10.0645 25.0055 9.75797 24.452 9.90976 23.9211C10.668 21.273 13.1045 19.3333 15.9986 19.3333Z" fill="#001E4C"/>
<path d="M24.665 16.0002C24.665 11.2139 20.7853 7.33343 15.999 7.33325C11.2126 7.33325 7.33203 11.2138 7.33203 16.0002C7.33221 20.7866 11.2127 24.6663 15.999 24.6663C20.7852 24.6661 24.6649 20.7865 24.665 16.0002ZM26.665 16.0002C26.6649 21.891 21.8898 26.6661 15.999 26.6663C10.1081 26.6663 5.33221 21.8911 5.33203 16.0002C5.33203 10.1092 10.108 5.33325 15.999 5.33325C21.8899 5.33343 26.665 10.1093 26.665 16.0002Z" fill="#001E4C"/>
</svg>
